<svg width="24" height="23" viewBox="0 0 24 23" fill="none" xmlns="http://www.w3.org/2000/svg">
<path d="M0.5 0.985714C0.5 0.724287 0.603859 0.473566 0.788729 0.288709C0.973599 0.103852 1.22434 0 1.48578 0H2.21921C3.46786 0 4.21706 0.839828 4.64423 1.62051C4.92945 2.14097 5.13581 2.74423 5.29748 3.29097C5.34121 3.28752 5.38505 3.28577 5.42892 3.28571H21.856C22.9469 3.28571 23.7356 4.32926 23.4359 5.37937L21.0332 13.8026C20.8178 14.5582 20.362 15.2229 19.735 15.6963C19.1079 16.1696 18.3437 16.4258 17.558 16.4259H9.74007C8.94815 16.426 8.17814 16.1659 7.54838 15.6858C6.91863 15.2057 6.46399 14.5321 6.25434 13.7685L5.25542 10.1253L3.5993 4.54217L3.59799 4.53166C3.39294 3.78646 3.20105 3.08857 2.91451 2.56811C2.63981 2.06211 2.41899 1.97143 2.22052 1.97143H1.48578C1.22434 1.97143 0.973599 1.86758 0.788729 1.68272C0.603859 1.49786 0.5 1.24714 0.5 0.985714ZM7.16784 9.64686L8.15494 13.2467C8.35209 13.959 9.00008 14.4545 9.74007 14.4545H17.558C17.9151 14.4545 18.2625 14.3382 18.5476 14.1231C18.8327 13.908 19.0399 13.6058 19.1379 13.2625L21.4209 5.25714H5.86923L7.14944 9.5772L7.16784 9.64686ZM11.6722 20.3714C11.6722 21.0686 11.3953 21.7372 10.9023 22.2301C10.4093 22.7231 9.74064 23 9.04345 23C8.34626 23 7.67763 22.7231 7.18464 22.2301C6.69166 21.7372 6.4147 21.0686 6.4147 20.3714C6.4147 19.6743 6.69166 19.0057 7.18464 18.5127C7.67763 18.0198 8.34626 17.7429 9.04345 17.7429C9.74064 17.7429 10.4093 18.0198 10.9023 18.5127C11.3953 19.0057 11.6722 19.6743 11.6722 20.3714ZM9.70064 20.3714C9.70064 20.1971 9.6314 20.03 9.50816 19.9068C9.38491 19.7835 9.21775 19.7143 9.04345 19.7143C8.86916 19.7143 8.702 19.7835 8.57875 19.9068C8.4555 20.03 8.38627 20.1971 8.38627 20.3714C8.38627 20.5457 8.4555 20.7129 8.57875 20.8361C8.702 20.9593 8.86916 21.0286 9.04345 21.0286C9.21775 21.0286 9.38491 20.9593 9.50816 20.8361C9.6314 20.7129 9.70064 20.5457 9.70064 20.3714ZM20.8729 20.3714C20.8729 21.0686 20.5959 21.7372 20.1029 22.2301C19.6099 22.7231 18.9413 23 18.2441 23C17.5469 23 16.8783 22.7231 16.3853 22.2301C15.8923 21.7372 15.6153 21.0686 15.6153 20.3714C15.6153 19.6743 15.8923 19.0057 16.3853 18.5127C16.8783 18.0198 17.5469 17.7429 18.2441 17.7429C18.9413 17.7429 19.6099 18.0198 20.1029 18.5127C20.5959 19.0057 20.8729 19.6743 20.8729 20.3714ZM18.9013 20.3714C18.9013 20.1971 18.832 20.03 18.7088 19.9068C18.5856 19.7835 18.4184 19.7143 18.2441 19.7143C18.0698 19.7143 17.9026 19.7835 17.7794 19.9068C17.6561 20.03 17.5869 20.1971 17.5869 20.3714C17.5869 20.5457 17.6561 20.7129 17.7794 20.8361C17.9026 20.9593 18.0698 21.0286 18.2441 21.0286C18.4184 21.0286 18.5856 20.9593 18.7088 20.8361C18.832 20.7129 18.9013 20.5457 18.9013 20.3714Z" fill="#580EF6"/>
</svg>
