<svg width="20" height="23" viewBox="0 0 20 23" fill="none" xmlns="http://www.w3.org/2000/svg">
<path d="M0 1.91667C0 0.858667 0.84758 0 1.89192 0H7.83796C8.053 0 8.25924 0.0865431 8.4113 0.240591C8.56335 0.394639 8.64878 0.603572 8.64878 0.821429C8.64878 1.03928 8.56335 1.24822 8.4113 1.40227C8.25924 1.55631 8.053 1.64286 7.83796 1.64286H1.89192C1.82024 1.64286 1.75149 1.6717 1.70081 1.72305C1.65012 1.7744 1.62165 1.84405 1.62165 1.91667V21.0833C1.62165 21.2345 1.74273 21.3571 1.89192 21.3571H7.83796C8.053 21.3571 8.25924 21.4437 8.4113 21.5977C8.56335 21.7518 8.64878 21.9607 8.64878 22.1786C8.64878 22.3964 8.56335 22.6054 8.4113 22.7594C8.25924 22.9135 8.053 23 7.83796 23H1.89192C1.39015 23 0.908935 22.7981 0.554131 22.4386C0.199327 22.0792 0 21.5917 0 21.0833V1.91667ZM17.304 12.3214H8.37851C8.16346 12.3214 7.95723 12.2349 7.80517 12.0808C7.65311 11.9268 7.56768 11.7179 7.56768 11.5C7.56768 11.2821 7.65311 11.0732 7.80517 10.9192C7.95723 10.7651 8.16346 10.6786 8.37851 10.6786H17.304L13.7364 6.86276C13.5943 6.7037 13.5193 6.49464 13.5274 6.28027C13.5354 6.0659 13.626 5.86323 13.7796 5.71559C13.9332 5.56796 14.1378 5.48707 14.3495 5.49022C14.5613 5.49338 14.7634 5.58033 14.9127 5.73248L19.7776 10.9349C19.9204 11.0875 20 11.2897 20 11.5C20 11.7103 19.9204 11.9125 19.7776 12.0651L14.9127 17.2675C14.7634 17.4197 14.5613 17.5066 14.3495 17.5098C14.1378 17.5129 13.9332 17.432 13.7796 17.2844C13.626 17.1368 13.5354 16.9341 13.5274 16.7197C13.5193 16.5054 13.5943 16.2963 13.7364 16.1372L17.304 12.3214Z" fill="#580EF6"/>
</svg>