<svg width="119" height="54" viewBox="0 0 119 54" fill="none" xmlns="http://www.w3.org/2000/svg">
<rect x="0.5" y="0.5" width="118" height="53" stroke="#580EF6"/>
<path d="M11.7614 22V7.45455H16.6761C17.8172 7.45455 18.75 7.66051 19.4744 8.07244C20.2036 8.47964 20.7434 9.03125 21.0938 9.72727C21.4441 10.4233 21.6193 11.1998 21.6193 12.0568C21.6193 12.9138 21.4441 13.6927 21.0938 14.3935C20.7481 15.0942 20.2131 15.6529 19.4886 16.0696C18.7642 16.4815 17.8362 16.6875 16.7045 16.6875H13.1818V15.125H16.6477C17.429 15.125 18.0563 14.9901 18.5298 14.7202C19.0033 14.4503 19.3466 14.0857 19.5597 13.6264C19.7775 13.1624 19.8864 12.6392 19.8864 12.0568C19.8864 11.4744 19.7775 10.9536 19.5597 10.4943C19.3466 10.035 19.0009 9.67519 18.5227 9.41477C18.0445 9.14962 17.41 9.01705 16.6193 9.01705H13.5227V22H11.7614ZM27.4567 22V7.45455H32.3714C33.5078 7.45455 34.4406 7.64867 35.1697 8.03693C35.8989 8.42045 36.4387 8.94839 36.7891 9.62074C37.1394 10.2931 37.3146 11.0578 37.3146 11.9148C37.3146 12.7718 37.1394 13.5317 36.7891 14.1946C36.4387 14.8575 35.9013 15.3783 35.1768 15.7571C34.4524 16.1312 33.5268 16.3182 32.3999 16.3182H28.4226V14.7273H32.343C33.1196 14.7273 33.7446 14.6136 34.218 14.3864C34.6963 14.1591 35.0419 13.8371 35.255 13.4205C35.4728 12.9991 35.5817 12.4972 35.5817 11.9148C35.5817 11.3324 35.4728 10.8234 35.255 10.3878C35.0372 9.95218 34.6892 9.616 34.2109 9.37926C33.7327 9.13778 33.1006 9.01705 32.3146 9.01705H29.218V22H27.4567ZM34.3033 15.4659L37.8828 22H35.8374L32.3146 15.4659H34.3033ZM45.011 7.45455V22H43.2496V7.45455H45.011ZM52.1392 7.45455L56.4574 19.6989H56.6278L60.946 7.45455H62.7926L57.4517 22H55.6335L50.2926 7.45455H52.1392ZM67.4048 22H65.5582L70.8991 7.45455H72.7173L78.0582 22H76.2116L71.8651 9.75568H71.7514L67.4048 22ZM68.0866 16.3182H75.5298V17.8807H68.0866V16.3182ZM80.8292 9.01705V7.45455H91.7383V9.01705H87.1644V22H85.4031V9.01705H80.8292ZM97.4567 22V7.45455H106.235V9.01705H99.218V13.9318H105.781V15.4943H99.218V20.4375H106.349V22H97.4567ZM11.7614 46V31.4545H16.8466C17.8598 31.4545 18.6955 31.6297 19.3537 31.9801C20.0118 32.3258 20.5019 32.7921 20.8239 33.3793C21.1458 33.9616 21.3068 34.608 21.3068 35.3182C21.3068 35.9432 21.1955 36.4593 20.973 36.8665C20.7552 37.2737 20.4664 37.5956 20.1065 37.8324C19.7514 38.0691 19.3655 38.2443 18.9489 38.358V38.5C19.3939 38.5284 19.8414 38.6847 20.2912 38.9688C20.741 39.2528 21.1174 39.66 21.4205 40.1903C21.7235 40.7206 21.875 41.3693 21.875 42.1364C21.875 42.8655 21.7093 43.5213 21.3778 44.1037C21.0464 44.6861 20.5232 45.1477 19.8082 45.4886C19.0933 45.8295 18.1629 46 17.017 46H11.7614ZM13.5227 44.4375H17.017C18.1676 44.4375 18.9844 44.215 19.4673 43.7699C19.955 43.3201 20.1989 42.7756 20.1989 42.1364C20.1989 41.6439 20.0734 41.1894 19.8224 40.7727C19.5715 40.3513 19.214 40.0152 18.75 39.7642C18.286 39.5085 17.7367 39.3807 17.1023 39.3807H13.5227V44.4375ZM13.5227 37.8466H16.7898C17.3201 37.8466 17.7983 37.7424 18.2244 37.5341C18.6553 37.3258 18.9962 37.0322 19.2472 36.6534C19.5028 36.2746 19.6307 35.8295 19.6307 35.3182C19.6307 34.679 19.4081 34.1368 18.9631 33.6918C18.518 33.242 17.8125 33.017 16.8466 33.017H13.5227V37.8466ZM34.3146 31.4545H36.076V41.0852C36.076 42.0795 35.8416 42.9673 35.3729 43.7486C34.9089 44.5251 34.2531 45.1383 33.4055 45.5881C32.558 46.0331 31.5637 46.2557 30.4226 46.2557C29.2815 46.2557 28.2872 46.0331 27.4396 45.5881C26.5921 45.1383 25.9339 44.5251 25.4652 43.7486C25.0012 42.9673 24.7692 42.0795 24.7692 41.0852V31.4545H26.5305V40.9432C26.5305 41.6534 26.6868 42.2855 26.9993 42.8395C27.3118 43.3887 27.7569 43.822 28.3345 44.1392C28.9169 44.4517 29.6129 44.608 30.4226 44.608C31.2322 44.608 31.9283 44.4517 32.5107 44.1392C33.093 43.822 33.5381 43.3887 33.8459 42.8395C34.1584 42.2855 34.3146 41.6534 34.3146 40.9432V31.4545ZM47.5479 35.0909C47.4627 34.3712 47.1171 33.8125 46.511 33.4148C45.9049 33.017 45.1616 32.8182 44.2809 32.8182C43.637 32.8182 43.0735 32.9223 42.5906 33.1307C42.1123 33.339 41.7383 33.6255 41.4684 33.9901C41.2032 34.3546 41.0707 34.7689 41.0707 35.233C41.0707 35.6212 41.163 35.955 41.3477 36.2344C41.5371 36.509 41.7785 36.7386 42.0721 36.9233C42.3656 37.1032 42.6734 37.2524 42.9954 37.3707C43.3174 37.4844 43.6133 37.5767 43.8832 37.6477L45.3604 38.0455C45.7392 38.1449 46.1606 38.2822 46.6246 38.4574C47.0934 38.6326 47.5408 38.8717 47.967 39.1747C48.3978 39.473 48.753 39.8565 49.0323 40.3253C49.3117 40.794 49.4513 41.3693 49.4513 42.0511C49.4513 42.8371 49.2454 43.5473 48.8335 44.1818C48.4263 44.8163 47.8297 45.3205 47.0437 45.6946C46.2624 46.0687 45.3131 46.2557 44.1957 46.2557C43.154 46.2557 42.252 46.0876 41.4897 45.7514C40.7321 45.4152 40.1355 44.9465 39.6999 44.3452C39.2691 43.7438 39.0252 43.0455 38.9684 42.25H40.7866C40.8339 42.7992 41.0186 43.2538 41.3406 43.6136C41.6673 43.9687 42.0792 44.2339 42.5763 44.4091C43.0782 44.5795 43.618 44.6648 44.1957 44.6648C44.868 44.6648 45.4717 44.5559 46.0067 44.3381C46.5418 44.1155 46.9656 43.8078 47.2781 43.4148C47.5906 43.017 47.7468 42.553 47.7468 42.0227C47.7468 41.5398 47.6119 41.1468 47.342 40.8438C47.0721 40.5407 46.717 40.2945 46.2766 40.1051C45.8363 39.9157 45.3604 39.75 44.8491 39.608L43.0593 39.0966C41.9229 38.7699 41.0233 38.3035 40.3604 37.6974C39.6976 37.0914 39.3661 36.2983 39.3661 35.3182C39.3661 34.5038 39.5863 33.7936 40.0266 33.1875C40.4717 32.5767 41.0683 32.1032 41.8164 31.767C42.5692 31.4261 43.4097 31.2557 44.3377 31.2557C45.2752 31.2557 46.1085 31.4238 46.8377 31.7599C47.5669 32.0914 48.1445 32.5459 48.5707 33.1236C49.0015 33.7012 49.2288 34.357 49.2525 35.0909H47.5479ZM54.1087 31.4545V46H52.3473V31.4545H54.1087ZM69.1744 31.4545V46H67.4698L59.5437 34.5795H59.4016V46H57.6403V31.4545H59.3448L67.2994 42.9034H67.4414V31.4545H69.1744ZM72.6989 46V31.4545H81.4773V33.017H74.4602V37.9318H81.0227V39.4943H74.4602V44.4375H81.5909V46H72.6989ZM92.6065 35.0909C92.5213 34.3712 92.1757 33.8125 91.5696 33.4148C90.9635 33.017 90.2202 32.8182 89.3395 32.8182C88.6955 32.8182 88.1321 32.9223 87.6491 33.1307C87.1709 33.339 86.7969 33.6255 86.527 33.9901C86.2618 34.3546 86.1293 34.7689 86.1293 35.233C86.1293 35.6212 86.2216 35.955 86.4062 36.2344C86.5956 36.509 86.8371 36.7386 87.1307 36.9233C87.4242 37.1032 87.732 37.2524 88.054 37.3707C88.3759 37.4844 88.6719 37.5767 88.9418 37.6477L90.419 38.0455C90.7978 38.1449 91.2192 38.2822 91.6832 38.4574C92.152 38.6326 92.5994 38.8717 93.0256 39.1747C93.4564 39.473 93.8116 39.8565 94.0909 40.3253C94.3703 40.794 94.5099 41.3693 94.5099 42.0511C94.5099 42.8371 94.304 43.5473 93.892 44.1818C93.4848 44.8163 92.8883 45.3205 92.1023 45.6946C91.321 46.0687 90.3717 46.2557 89.2543 46.2557C88.2126 46.2557 87.3106 46.0876 86.5483 45.7514C85.7907 45.4152 85.1941 44.9465 84.7585 44.3452C84.3277 43.7438 84.0838 43.0455 84.027 42.25H85.8452C85.8925 42.7992 86.0772 43.2538 86.3991 43.6136C86.7259 43.9687 87.1378 44.2339 87.6349 44.4091C88.1368 44.5795 88.6766 44.6648 89.2543 44.6648C89.9266 44.6648 90.5303 44.5559 91.0653 44.3381C91.6004 44.1155 92.0241 43.8078 92.3366 43.4148C92.6491 43.017 92.8054 42.553 92.8054 42.0227C92.8054 41.5398 92.6705 41.1468 92.4006 40.8438C92.1307 40.5407 91.7756 40.2945 91.3352 40.1051C90.8949 39.9157 90.419 39.75 89.9077 39.608L88.1179 39.0966C86.9815 38.7699 86.0819 38.3035 85.419 37.6974C84.7562 37.0914 84.4247 36.2983 84.4247 35.3182C84.4247 34.5038 84.6449 33.7936 85.0852 33.1875C85.5303 32.5767 86.1269 32.1032 86.875 31.767C87.6278 31.4261 88.4683 31.2557 89.3963 31.2557C90.3338 31.2557 91.1671 31.4238 91.8963 31.7599C92.6255 32.0914 93.2031 32.5459 93.6293 33.1236C94.0601 33.7012 94.2874 34.357 94.3111 35.0909H92.6065ZM105.36 35.0909C105.275 34.3712 104.93 33.8125 104.324 33.4148C103.717 33.017 102.974 32.8182 102.093 32.8182C101.449 32.8182 100.886 32.9223 100.403 33.1307C99.9248 33.339 99.5508 33.6255 99.2809 33.9901C99.0157 34.3546 98.8832 34.7689 98.8832 35.233C98.8832 35.6212 98.9755 35.955 99.1602 36.2344C99.3496 36.509 99.591 36.7386 99.8846 36.9233C100.178 37.1032 100.486 37.2524 100.808 37.3707C101.13 37.4844 101.426 37.5767 101.696 37.6477L103.173 38.0455C103.552 38.1449 103.973 38.2822 104.437 38.4574C104.906 38.6326 105.353 38.8717 105.779 39.1747C106.21 39.473 106.565 39.8565 106.845 40.3253C107.124 40.794 107.264 41.3693 107.264 42.0511C107.264 42.8371 107.058 43.5473 106.646 44.1818C106.239 44.8163 105.642 45.3205 104.856 45.6946C104.075 46.0687 103.126 46.2557 102.008 46.2557C100.967 46.2557 100.065 46.0876 99.3022 45.7514C98.5446 45.4152 97.948 44.9465 97.5124 44.3452C97.0816 43.7438 96.8377 43.0455 96.7809 42.25H98.5991C98.6464 42.7992 98.8311 43.2538 99.1531 43.6136C99.4798 43.9687 99.8917 44.2339 100.389 44.4091C100.891 44.5795 101.431 44.6648 102.008 44.6648C102.681 44.6648 103.284 44.5559 103.819 44.3381C104.354 44.1155 104.778 43.8078 105.091 43.4148C105.403 43.017 105.559 42.553 105.559 42.0227C105.559 41.5398 105.424 41.1468 105.154 40.8438C104.885 40.5407 104.529 40.2945 104.089 40.1051C103.649 39.9157 103.173 39.75 102.662 39.608L100.872 39.0966C99.7354 38.7699 98.8358 38.3035 98.1729 37.6974C97.5101 37.0914 97.1786 36.2983 97.1786 35.3182C97.1786 34.5038 97.3988 33.7936 97.8391 33.1875C98.2842 32.5767 98.8808 32.1032 99.6289 31.767C100.382 31.4261 101.222 31.2557 102.15 31.2557C103.088 31.2557 103.921 31.4238 104.65 31.7599C105.379 32.0914 105.957 32.5459 106.383 33.1236C106.814 33.7012 107.041 34.357 107.065 35.0909H105.36Z" fill="#580EF6"/>
</svg>
