<svg width="231" height="84" viewBox="0 0 231 84" fill="none" xmlns="http://www.w3.org/2000/svg">
<path d="M1.33984 22.2178C2.35938 22.2933 3.31283 22.3499 4.2002 22.3877C5.08757 22.4255 5.88053 22.4443 6.5791 22.4443C7.52311 22.4443 8.49544 22.4255 9.49609 22.3877C10.4967 22.3499 11.5163 22.2933 12.5547 22.2178V24.1436H12.1299C11.0915 24.1436 10.3646 24.2946 9.94922 24.5967C9.55273 24.8988 9.35449 25.418 9.35449 26.1543C9.35449 26.3997 9.40169 26.7207 9.49609 27.1172C9.59049 27.5137 9.71322 27.9479 9.86426 28.4199L15.3301 44.0811L22.8066 28.25L22.2969 26.6924C21.9193 25.6162 21.5133 24.9271 21.0791 24.625C20.6449 24.304 19.9652 24.1436 19.04 24.1436H18.2188V22.2178C19.3138 22.2933 20.3333 22.3499 21.2773 22.3877C22.2214 22.4255 23.0615 22.4443 23.7979 22.4443C24.7985 22.4443 25.8086 22.4255 26.8281 22.3877C27.8477 22.3499 28.9049 22.2933 30 22.2178V24.1436C29.9056 24.1436 29.764 24.153 29.5752 24.1719C29.3864 24.1908 29.2542 24.2002 29.1787 24.2002C28.4046 24.2002 27.8288 24.3324 27.4512 24.5967C27.0924 24.8421 26.9131 25.248 26.9131 25.8145C26.9131 26.1543 26.9603 26.5508 27.0547 27.0039C27.168 27.4382 27.319 27.929 27.5078 28.4766L32.7754 43.9111L33.6816 41.6172C37.3822 32.1016 39.2324 26.8906 39.2324 25.9844C39.2324 25.2669 39.0247 24.7855 38.6094 24.54C38.2129 24.2757 37.4482 24.1436 36.3154 24.1436H35.8057V22.2178C36.6742 22.2933 37.5238 22.3499 38.3545 22.3877C39.2041 22.4255 40.0348 22.4443 40.8467 22.4443C41.5264 22.4443 42.2627 22.4255 43.0557 22.3877C43.8675 22.3499 44.736 22.2933 45.6611 22.2178V24.1436C45.057 24.1436 44.5566 24.2285 44.1602 24.3984C43.7637 24.5495 43.4521 24.7855 43.2256 25.1064C42.8102 25.7295 41.9417 27.5986 40.6201 30.7139C39.3174 33.8291 36.5892 40.5316 32.4355 50.8213H30.3965L23.7412 31.8467C21.5322 36.1325 19.7292 39.7764 18.332 42.7783C16.9538 45.7803 15.8398 48.4613 14.9902 50.8213H13.0645C11.554 46.6488 9.75098 41.5511 7.65527 35.5283C5.55957 29.4867 4.28516 26.0788 3.83203 25.3047C3.58659 24.8893 3.29395 24.5967 2.9541 24.4268C2.61426 24.238 2.21777 24.1436 1.76465 24.1436H1.33984V22.2178ZM72.3105 34.1689H58.4902C57.4141 34.1689 56.4229 34.1878 55.5166 34.2256C54.6104 34.2633 53.7702 34.32 52.9961 34.3955V35.4434C52.9961 39.1439 53.8457 42.0042 55.5449 44.0244C57.263 46.0446 59.6797 47.0547 62.7949 47.0547C64.1732 47.0547 65.5326 46.8281 66.873 46.375C68.2135 45.903 69.639 45.1761 71.1494 44.1943L72.2539 46.0068C70.3092 47.5928 68.3646 48.7917 66.4199 49.6035C64.4941 50.4154 62.5872 50.8213 60.6992 50.8213C57.0365 50.8213 54.0156 49.5186 51.6367 46.9131C49.2578 44.2887 48.0684 40.9281 48.0684 36.8311C48.0684 32.4697 49.3145 28.807 51.8066 25.8428C54.2988 22.8786 57.3385 21.3965 60.9258 21.3965C64.2676 21.3965 66.9297 22.5104 68.9121 24.7383C70.8945 26.9661 72.0273 30.1097 72.3105 34.1689ZM67.0713 31.1953C66.5049 28.873 65.6458 27.0983 64.4941 25.8711C63.3424 24.625 61.9642 24.002 60.3594 24.002C58.5469 24.002 56.9893 24.7288 55.6865 26.1826C54.4027 27.6364 53.5625 29.5999 53.166 32.0732C56.9043 32.0732 59.8402 32.0072 61.9736 31.875C64.126 31.7428 65.8252 31.5163 67.0713 31.1953ZM84.4316 46.29C85.3001 46.7432 86.1686 47.083 87.0371 47.3096C87.9056 47.5173 88.8402 47.6211 89.8408 47.6211C92.9749 47.6211 95.4388 46.6488 97.2324 44.7041C99.026 42.7406 99.9229 40.0407 99.9229 36.6045C99.9229 33.2438 99.111 30.5251 97.4873 28.4482C95.8825 26.3525 93.7962 25.3047 91.2285 25.3047C90.1523 25.3047 89.0384 25.484 87.8867 25.8428C86.735 26.2015 85.4512 26.7679 84.0352 27.542C84.0163 29.1846 83.9974 30.7422 83.9785 32.2148C83.9785 33.6686 83.9785 35.0186 83.9785 36.2646C83.9785 39.1344 84.0163 41.3623 84.0918 42.9482C84.1673 44.5342 84.2806 45.6481 84.4316 46.29ZM84.375 6.10352L84.3467 7.12305C84.0635 14.5241 83.9219 19.9427 83.9219 23.3789V25.248C85.8665 23.9453 87.5752 23.0107 89.0479 22.4443C90.5205 21.859 91.946 21.5664 93.3242 21.5664C96.4395 21.5664 99.1204 22.8597 101.367 25.4463C103.614 28.014 104.737 31.1292 104.737 34.792C104.737 39.4365 103.255 43.2031 100.291 46.0918C97.3268 48.9616 93.3809 50.3965 88.4531 50.3965C86.8294 50.3965 85.2435 50.2926 83.6953 50.085C82.1471 49.8773 80.6178 49.5563 79.1074 49.1221C79.2207 42.7972 79.3057 37.7845 79.3623 34.084C79.4189 30.3646 79.4473 27.9574 79.4473 26.8623V23.0957C79.4473 22.1139 79.4567 20.8678 79.4756 19.3574C79.4945 17.847 79.5039 16.8275 79.5039 16.2988C79.5039 13.8066 79.3529 12.1641 79.0508 11.3711C78.7676 10.5592 78.2295 10.1533 77.4365 10.1533C77.2477 10.1533 77.0117 10.1722 76.7285 10.21C76.4642 10.2288 76.1432 10.2666 75.7656 10.3232L75.4541 8.53906C76.9079 8.23698 78.3805 7.8877 79.8721 7.49121C81.3636 7.09473 82.8646 6.63216 84.375 6.10352ZM127.507 22.5576C127.507 23.7093 127.563 24.8704 127.677 26.041C127.809 27.2116 127.988 28.3916 128.215 29.5811L126.062 29.9209C125.836 27.9574 125.213 26.4941 124.193 25.5312C123.174 24.5684 121.748 24.0869 119.917 24.0869C118.331 24.0869 117.028 24.5212 116.009 25.3896C114.989 26.2393 114.479 27.3249 114.479 28.6465C114.479 30.7422 116.707 32.4036 121.163 33.6309C121.937 33.8385 122.532 33.999 122.947 34.1123C125.175 34.7354 126.799 35.6227 127.818 36.7744C128.857 37.9261 129.376 39.4365 129.376 41.3057C129.376 44.0622 128.29 46.3372 126.119 48.1309C123.967 49.9245 121.201 50.8213 117.821 50.8213C116.594 50.8213 115.339 50.6891 114.055 50.4248C112.771 50.1605 111.459 49.764 110.118 49.2354C110.137 49.0465 110.146 48.8483 110.146 48.6406C110.165 48.4329 110.175 48.112 110.175 47.6777C110.175 46.8092 110.118 45.8747 110.005 44.874C109.91 43.8545 109.759 42.7783 109.552 41.6455L111.676 41.1357C111.978 43.4769 112.714 45.2327 113.885 46.4033C115.055 47.555 116.679 48.1309 118.756 48.1309C120.644 48.1309 122.183 47.6777 123.372 46.7715C124.58 45.8464 125.185 44.6569 125.185 43.2031C125.185 41.1641 123.183 39.5404 119.181 38.332C118.784 38.1999 118.492 38.1055 118.303 38.0488C115.433 37.1803 113.413 36.1136 112.242 34.8486C111.09 33.5837 110.515 31.9033 110.515 29.8076C110.515 27.391 111.478 25.3896 113.403 23.8037C115.329 22.1989 117.793 21.3965 120.795 21.3965C121.72 21.3965 122.721 21.4909 123.797 21.6797C124.892 21.8685 126.129 22.1611 127.507 22.5576ZM142.828 6.2168C142.753 9.38867 142.687 12.6266 142.63 15.9307C142.573 19.2347 142.535 22.6237 142.517 26.0977C144.631 24.4928 146.519 23.3128 148.181 22.5576C149.842 21.7835 151.353 21.3965 152.712 21.3965C155.487 21.3965 157.574 22.18 158.971 23.7471C160.368 25.3141 161.066 27.6647 161.066 30.7988C161.066 30.8177 161.057 31.6484 161.038 33.291C161.019 34.9336 161.01 36.5762 161.01 38.2188C161.01 38.9173 161 39.7952 160.981 40.8525C160.963 41.891 160.953 42.599 160.953 42.9766C160.953 45.0911 161.142 46.4694 161.52 47.1113C161.897 47.7533 162.615 48.0742 163.672 48.0742C163.729 48.0742 163.832 48.0648 163.983 48.0459C164.153 48.027 164.285 48.0176 164.38 48.0176V50C162.662 49.8867 161.368 49.8112 160.5 49.7734C159.632 49.7357 158.914 49.7168 158.348 49.7168C157.441 49.7168 156.46 49.7451 155.402 49.8018C154.364 49.8395 153.278 49.9056 152.146 50L152.117 48.0176H152.542C154.959 48.0176 156.195 45.8086 156.252 41.3906C156.252 41.1452 156.252 40.9564 156.252 40.8242L156.309 34.7354V33.5742C156.309 30.138 155.903 27.863 155.091 26.749C154.279 25.6162 152.882 25.0498 150.899 25.0498C149.823 25.0498 148.624 25.3141 147.303 25.8428C146 26.3714 144.461 27.2116 142.687 28.3633L142.545 38.4453C142.545 39.0117 142.535 39.7386 142.517 40.626C142.498 41.5133 142.488 42.127 142.488 42.4668C142.488 44.8079 142.677 46.3278 143.055 47.0264C143.432 47.7249 144.159 48.0742 145.235 48.0742C145.311 48.0742 145.424 48.0648 145.575 48.0459C145.745 48.027 145.877 48.0176 145.972 48.0176V50C144.782 49.9056 143.659 49.8395 142.602 49.8018C141.563 49.7451 140.657 49.7168 139.883 49.7168C139.146 49.7168 138.297 49.7357 137.334 49.7734C136.371 49.8112 135.116 49.8773 133.567 49.9717V48.0176C133.681 48.0176 133.841 48.027 134.049 48.0459C134.257 48.0648 134.408 48.0742 134.502 48.0742C135.805 48.0742 136.683 47.7344 137.136 47.0547C137.589 46.3561 137.815 44.3454 137.815 41.0225V38.9268L137.929 17.6299V12.7588C137.929 11.9469 137.749 11.3428 137.391 10.9463C137.051 10.5309 136.532 10.3232 135.833 10.3232C135.569 10.3232 135.134 10.3799 134.53 10.4932C134.379 10.5309 134.275 10.5498 134.219 10.5498L133.794 8.70898C135.342 8.4069 136.862 8.05762 138.354 7.66113C139.845 7.24577 141.337 6.76432 142.828 6.2168ZM181.825 24.3701C179.295 24.3701 177.256 25.2952 175.708 27.1455C174.179 28.9769 173.414 31.4502 173.414 34.5654C173.414 38.5492 174.264 41.7777 175.963 44.251C177.681 46.7243 179.909 47.9609 182.646 47.9609C185.29 47.9609 187.395 46.9792 188.962 45.0156C190.548 43.0521 191.341 40.3805 191.341 37.001C191.341 33.3005 190.444 30.2702 188.65 27.9102C186.876 25.5501 184.601 24.3701 181.825 24.3701ZM182.562 21.3965C186.545 21.3965 189.84 22.737 192.445 25.418C195.07 28.0801 196.382 31.3841 196.382 35.3301C196.382 39.6725 195.004 43.3353 192.247 46.3184C189.491 49.2826 186.092 50.7646 182.052 50.7646C178.011 50.7646 174.688 49.4053 172.083 46.6865C169.496 43.9678 168.203 40.5316 168.203 36.3779C168.203 32.2243 169.61 28.6937 172.423 25.7861C175.255 22.8597 178.634 21.3965 182.562 21.3965ZM207.965 45.8936C209.098 46.4411 210.23 46.8659 211.363 47.168C212.496 47.4701 213.572 47.6211 214.592 47.6211C217.386 47.6211 219.576 46.7054 221.162 44.874C222.767 43.0238 223.569 40.4561 223.569 37.1709C223.569 33.6214 222.786 30.7894 221.219 28.6748C219.652 26.5413 217.594 25.4746 215.045 25.4746C213.95 25.4746 212.798 25.654 211.59 26.0127C210.4 26.3714 209.249 26.8812 208.135 27.542C208.059 30.2985 208.003 32.904 207.965 35.3584C207.927 37.8128 207.908 40.0596 207.908 42.0986C207.908 42.4574 207.918 43.0615 207.937 43.9111C207.955 44.7419 207.965 45.4027 207.965 45.8936ZM208.361 20.7168L208.135 25.248C209.853 24.0586 211.448 23.1901 212.921 22.6426C214.412 22.0951 215.876 21.8213 217.311 21.8213C220.426 21.8213 223.031 23.0674 225.127 25.5596C227.223 28.0329 228.271 31.1104 228.271 34.792C228.271 39.5876 226.93 43.3447 224.249 46.0635C221.587 48.7633 217.896 50.1133 213.176 50.1133C212.307 50.1133 211.429 50.0283 210.542 49.8584C209.655 49.6696 208.777 49.4053 207.908 49.0654V59.1758C207.908 61.4036 209.541 62.5365 212.808 62.5742H212.836V64.6133C211.59 64.5189 210.382 64.4434 209.211 64.3867C208.059 64.349 206.964 64.3301 205.926 64.3301C205.303 64.3301 204.491 64.349 203.49 64.3867C202.49 64.4245 200.989 64.5 198.987 64.6133V62.5742C200.215 62.5742 201.045 62.5081 201.479 62.376C201.914 62.2627 202.244 62.0456 202.471 61.7246C202.962 60.875 203.226 57.0234 203.264 50.1699C203.264 48.7539 203.264 47.6494 203.264 46.8564L203.32 40.4277V32.498V31.082C203.32 28.7409 203.179 27.2777 202.896 26.6924C202.631 26.1071 202.103 25.8145 201.31 25.8145C201.121 25.8145 200.894 25.8333 200.63 25.8711C200.366 25.9089 200.082 25.9655 199.78 26.041L199.497 24.3135C201.102 23.8604 202.631 23.3411 204.085 22.7559C205.558 22.1517 206.983 21.472 208.361 20.7168Z" fill="#580EF6"/>
<circle cx="114.5" cy="78.5" r="2.5" fill="#580EF6"/>
<line x1="6" y1="78.5" x2="109" y2="78.5" stroke="#580EF6"/>
<ellipse cx="4.23717" cy="80.3363" rx="3.96278" ry="1.5" transform="rotate(-20.7272 4.23717 80.3363)" fill="#580EF6"/>
<ellipse cx="4.39898" cy="77.1581" rx="4.16056" ry="1.5" transform="rotate(25.7409 4.39898 77.1581)" fill="#580EF6"/>
<ellipse cx="12.2372" cy="80.3363" rx="3.96278" ry="1.5" transform="rotate(-20.7272 12.2372 80.3363)" fill="#580EF6"/>
<ellipse cx="12.399" cy="77.1581" rx="4.16056" ry="1.5" transform="rotate(25.7409 12.399 77.1581)" fill="#580EF6"/>
<line x1="120" y1="78.5" x2="223" y2="78.5" stroke="#580EF6"/>
<ellipse cx="226.561" cy="76.8053" rx="3.96278" ry="1.5" transform="rotate(159.273 226.561 76.8053)" fill="#580EF6"/>
<ellipse cx="226.399" cy="79.9835" rx="4.16056" ry="1.5" transform="rotate(-154.259 226.399 79.9835)" fill="#580EF6"/>
<ellipse cx="218.561" cy="76.8053" rx="3.96278" ry="1.5" transform="rotate(159.273 218.561 76.8053)" fill="#580EF6"/>
<ellipse cx="218.399" cy="79.9835" rx="4.16056" ry="1.5" transform="rotate(-154.259 218.399 79.9835)" fill="#580EF6"/>
</svg>
